<svg width="18" height="18" viewBox="0 0 18 18" fill="none"
  xmlns="http://www.w3.org/2000/svg">
  <path d="M5.36249 15.825C5.17499 15.6375 5.08124 15.4155 5.08124 15.159C5.08124 14.903 5.17499 14.6813 5.36249 14.4938L10.8562 9L5.34374 3.4875C5.16874 3.3125 5.08124 3.09375 5.08124 2.83125C5.08124 2.56875 5.17499 2.34375 5.36249 2.15625C5.54999 1.96875 5.77199 1.875 6.02849 1.875C6.28449 1.875 6.50624 1.96875 6.69374 2.15625L12.9937 8.475C13.0687 8.55 13.122 8.63125 13.1535 8.71875C13.1845 8.80625 13.2 8.9 13.2 9C13.2 9.1 13.1845 9.19375 13.1535 9.28125C13.122 9.36875 13.0687 9.45 12.9937 9.525L6.67499 15.8438C6.49999 16.0188 6.28449 16.1063 6.02849 16.1063C5.77199 16.1063 5.54999 16.0125 5.36249 15.825Z" fill="currentColor"/>
</svg>
