<svg width="21" height="20" viewBox="0 0 21 20" fill="none" xmlns="http://www.w3.org/2000/svg">
<path d="M9.5 10H1.5C1.23478 10 0.98043 10.1054 0.792893 10.2929C0.605357 10.4804 0.5 10.7348 0.5 11V19C0.5 19.2652 0.605357 19.5196 0.792893 19.7071C0.98043 19.8946 1.23478 20 1.5 20H9.5C9.76522 20 10.0196 19.8946 10.2071 19.7071C10.3946 19.5196 10.5 19.2652 10.5 19V11C10.5 10.7348 10.3946 10.4804 10.2071 10.2929C10.0196 10.1054 9.76522 10 9.5 10ZM8.5 18H2.5V12H8.5V18ZM20.42 0.62C20.3185 0.375651 20.1243 0.181475 19.88 0.0799999C19.7598 0.028759 19.6307 0.00157999 19.5 0H13.5C13.2348 0 12.9804 0.105357 12.7929 0.292893C12.6054 0.48043 12.5 0.734784 12.5 1C12.5 1.26522 12.6054 1.51957 12.7929 1.70711C12.9804 1.89464 13.2348 2 13.5 2H17.09L11.79 7.29C11.6963 7.38296 11.6219 7.49356 11.5711 7.61542C11.5203 7.73728 11.4942 7.86799 11.4942 8C11.4942 8.13201 11.5203 8.26272 11.5711 8.38458C11.6219 8.50644 11.6963 8.61704 11.79 8.71C11.883 8.80373 11.9936 8.87812 12.1154 8.92889C12.2373 8.97966 12.368 9.0058 12.5 9.0058C12.632 9.0058 12.7627 8.97966 12.8846 8.92889C13.0064 8.87812 13.117 8.80373 13.21 8.71L18.5 3.41V7C18.5 7.26522 18.6054 7.51957 18.7929 7.70711C18.9804 7.89464 19.2348 8 19.5 8C19.7652 8 20.0196 7.89464 20.2071 7.70711C20.3946 7.51957 20.5 7.26522 20.5 7V1C20.4984 0.869323 20.4712 0.740222 20.42 0.62Z" fill="#1849A9"/>
</svg>
