<svg width="19" height="14" viewBox="0 0 19 14" fill="none" xmlns="http://www.w3.org/2000/svg">
<path d="M7.20994 1.29C7.11698 1.19627 7.00637 1.12188 6.88452 1.07111C6.76266 1.02034 6.63195 0.994202 6.49994 0.994202C6.36793 0.994202 6.23722 1.02034 6.11536 1.07111C5.9935 1.12188 5.8829 1.19627 5.78994 1.29L0.789939 6.29C0.696211 6.38296 0.621816 6.49356 0.571048 6.61542C0.520279 6.73728 0.494141 6.86799 0.494141 7C0.494141 7.13201 0.520279 7.26272 0.571048 7.38458C0.621816 7.50644 0.696211 7.61704 0.789939 7.71L5.78994 12.71C5.8829 12.8037 5.9935 12.8781 6.11536 12.9289C6.23722 12.9797 6.36793 13.0058 6.49994 13.0058C6.63195 13.0058 6.76266 12.9797 6.88452 12.9289C7.00637 12.8781 7.11698 12.8037 7.20994 12.71C7.30367 12.617 7.37806 12.5064 7.42883 12.3846C7.4796 12.2627 7.50574 12.132 7.50574 12C7.50574 11.868 7.4796 11.7373 7.42883 11.6154C7.37806 11.4936 7.30367 11.383 7.20994 11.29L2.90994 7L7.20994 2.71C7.30367 2.61704 7.37806 2.50644 7.42883 2.38458C7.4796 2.26272 7.50574 2.13201 7.50574 2C7.50574 1.86799 7.4796 1.73728 7.42883 1.61542C7.37806 1.49356 7.30367 1.38296 7.20994 1.29ZM18.2099 6.29L13.2099 1.29C13.1167 1.19676 13.006 1.1228 12.8842 1.07234C12.7624 1.02188 12.6318 0.995908 12.4999 0.995908C12.2336 0.995908 11.9782 1.1017 11.7899 1.29C11.6967 1.38324 11.6227 1.49393 11.5723 1.61575C11.5218 1.73757 11.4958 1.86814 11.4958 2C11.4958 2.2663 11.6016 2.5217 11.7899 2.71L16.0899 7L11.7899 11.29C11.6962 11.383 11.6218 11.4936 11.571 11.6154C11.5203 11.7373 11.4941 11.868 11.4941 12C11.4941 12.132 11.5203 12.2627 11.571 12.3846C11.6218 12.5064 11.6962 12.617 11.7899 12.71C11.8829 12.8037 11.9935 12.8781 12.1154 12.9289C12.2372 12.9797 12.3679 13.0058 12.4999 13.0058C12.632 13.0058 12.7627 12.9797 12.8845 12.9289C13.0064 12.8781 13.117 12.8037 13.2099 12.71L18.2099 7.71C18.3037 7.61704 18.3781 7.50644 18.4288 7.38458C18.4796 7.26272 18.5057 7.13201 18.5057 7C18.5057 6.86799 18.4796 6.73728 18.4288 6.61542C18.3781 6.49356 18.3037 6.38296 18.2099 6.29Z" fill="currentColor"/>
</svg>
