<svg width="17" height="21" viewBox="0 0 17 21" fill="none" xmlns="http://www.w3.org/2000/svg">
<path d="M13.5 4.06C12.8065 4.06046 12.1345 4.3012 11.5985 4.74124C11.0625 5.18129 10.6954 5.79346 10.5599 6.47361C10.4243 7.15376 10.5286 7.85987 10.855 8.4718C11.1813 9.08374 11.7097 9.56369 12.35 9.83C12.1978 10.1949 11.9408 10.5066 11.6115 10.7255C11.2822 10.9444 10.8954 11.0608 10.5 11.06H6.50001C5.79505 11.063 5.104 11.2565 4.50001 11.62V5.88C5.16722 5.64411 5.72956 5.17993 6.08764 4.56952C6.44571 3.95911 6.57647 3.24176 6.4568 2.54427C6.33713 1.84677 5.97473 1.21404 5.43367 0.757897C4.8926 0.301755 4.20769 0.0515747 3.50001 0.0515747C2.79232 0.0515747 2.10741 0.301755 1.56635 0.757897C1.02528 1.21404 0.662882 1.84677 0.543211 2.54427C0.423539 3.24176 0.554297 3.95911 0.912375 4.56952C1.27045 5.17993 1.83279 5.64411 2.50001 5.88V14.24C1.84099 14.477 1.28566 14.9371 0.930256 15.5405C0.574848 16.144 0.441759 16.8528 0.554055 17.544C0.666351 18.2353 1.01695 18.8655 1.5451 19.3254C2.07325 19.7853 2.74567 20.046 3.44581 20.0622C4.14596 20.0784 4.82971 19.8491 5.37857 19.4142C5.92744 18.9792 6.30683 18.3659 6.45099 17.6805C6.59515 16.9952 6.495 16.281 6.1679 15.6618C5.84079 15.0425 5.30735 14.5572 4.66001 14.29C4.81158 13.9266 5.06704 13.6161 5.39436 13.3973C5.72168 13.1785 6.10629 13.0612 6.50001 13.06H10.5C11.4148 13.0598 12.302 12.7461 13.0135 12.171C13.725 11.596 14.2179 10.7944 14.41 9.9C15.0786 9.67283 15.6456 9.21711 16.0113 8.61305C16.3769 8.00899 16.5178 7.2953 16.4091 6.5976C16.3004 5.89991 15.949 5.26292 15.4169 4.79875C14.8848 4.33458 14.206 4.07298 13.5 4.06ZM3.50001 2.06C3.69779 2.06 3.89113 2.11865 4.05558 2.22853C4.22003 2.33841 4.3482 2.49459 4.42389 2.67732C4.49957 2.86004 4.51938 3.06111 4.48079 3.25509C4.44221 3.44907 4.34697 3.62726 4.20711 3.76711C4.06726 3.90696 3.88908 4.0022 3.6951 4.04079C3.50112 4.07937 3.30005 4.05957 3.11732 3.98388C2.9346 3.90819 2.77842 3.78002 2.66854 3.61557C2.55866 3.45112 2.50001 3.25778 2.50001 3.06C2.50001 2.79479 2.60536 2.54043 2.7929 2.3529C2.98044 2.16536 3.23479 2.06 3.50001 2.06ZM3.50001 18.06C3.30222 18.06 3.10889 18.0014 2.94444 17.8915C2.77999 17.7816 2.65181 17.6254 2.57613 17.4427C2.50044 17.26 2.48064 17.0589 2.51922 16.8649C2.55781 16.6709 2.65305 16.4927 2.7929 16.3529C2.93275 16.213 3.11093 16.1178 3.30492 16.0792C3.4989 16.0406 3.69996 16.0604 3.88269 16.1361C4.06542 16.2118 4.22159 16.34 4.33148 16.5044C4.44136 16.6689 4.50001 16.8622 4.50001 17.06C4.50001 17.3252 4.39465 17.5796 4.20711 17.7671C4.01958 17.9546 3.76522 18.06 3.50001 18.06ZM13.5 8.06C13.3022 8.06 13.1089 8.00135 12.9444 7.89147C12.78 7.78159 12.6518 7.62541 12.5761 7.44269C12.5004 7.25996 12.4806 7.05889 12.5192 6.86491C12.5578 6.67093 12.653 6.49275 12.7929 6.35289C12.9328 6.21304 13.1109 6.1178 13.3049 6.07922C13.4989 6.04063 13.7 6.06044 13.8827 6.13612C14.0654 6.21181 14.2216 6.33998 14.3315 6.50443C14.4414 6.66888 14.5 6.86222 14.5 7.06C14.5 7.32522 14.3947 7.57957 14.2071 7.76711C14.0196 7.95465 13.7652 8.06 13.5 8.06Z" fill="#1849A9"/>
</svg>
