<svg width="21" height="20" viewBox="0 0 21 20" fill="none" xmlns="http://www.w3.org/2000/svg">
<path d="M1.5 7C1.76522 7 2.01957 6.89464 2.20711 6.70711C2.39464 6.51957 2.5 6.26522 2.5 6V3C2.5 2.73478 2.60536 2.48043 2.79289 2.29289C2.98043 2.10536 3.23478 2 3.5 2H6.5C6.76522 2 7.01957 1.89464 7.20711 1.70711C7.39464 1.51957 7.5 1.26522 7.5 1C7.5 0.734784 7.39464 0.48043 7.20711 0.292893C7.01957 0.105357 6.76522 0 6.5 0H3.5C2.70435 0 1.94129 0.316071 1.37868 0.87868C0.816071 1.44129 0.5 2.20435 0.5 3V6C0.5 6.26522 0.605357 6.51957 0.792893 6.70711C0.98043 6.89464 1.23478 7 1.5 7ZM6.5 18H3.5C3.23478 18 2.98043 17.8946 2.79289 17.7071C2.60536 17.5196 2.5 17.2652 2.5 17V14C2.5 13.7348 2.39464 13.4804 2.20711 13.2929C2.01957 13.1054 1.76522 13 1.5 13C1.23478 13 0.98043 13.1054 0.792893 13.2929C0.605357 13.4804 0.5 13.7348 0.5 14V17C0.5 17.7956 0.816071 18.5587 1.37868 19.1213C1.94129 19.6839 2.70435 20 3.5 20H6.5C6.76522 20 7.01957 19.8946 7.20711 19.7071C7.39464 19.5196 7.5 19.2652 7.5 19C7.5 18.7348 7.39464 18.4804 7.20711 18.2929C7.01957 18.1054 6.76522 18 6.5 18ZM10.5 6C9.70887 6 8.93552 6.2346 8.27772 6.67412C7.61992 7.11365 7.10723 7.73836 6.80448 8.46927C6.50173 9.20017 6.42252 10.0044 6.57686 10.7804C6.7312 11.5563 7.11216 12.269 7.67157 12.8284C8.23098 13.3878 8.94372 13.7688 9.71964 13.9231C10.4956 14.0775 11.2998 13.9983 12.0307 13.6955C12.7616 13.3928 13.3864 12.8801 13.8259 12.2223C14.2654 11.5645 14.5 10.7911 14.5 10C14.5 8.93913 14.0786 7.92172 13.3284 7.17157C12.5783 6.42143 11.5609 6 10.5 6ZM10.5 12C10.1044 12 9.71776 11.8827 9.38886 11.6629C9.05996 11.4432 8.80362 11.1308 8.65224 10.7654C8.50087 10.3999 8.46126 9.99778 8.53843 9.60982C8.6156 9.22186 8.80608 8.86549 9.08579 8.58579C9.36549 8.30608 9.72186 8.1156 10.1098 8.03843C10.4978 7.96126 10.8999 8.00087 11.2654 8.15224C11.6308 8.30362 11.9432 8.55996 12.1629 8.88886C12.3827 9.21776 12.5 9.60444 12.5 10C12.5 10.5304 12.2893 11.0391 11.9142 11.4142C11.5391 11.7893 11.0304 12 10.5 12ZM17.5 0H14.5C14.2348 0 13.9804 0.105357 13.7929 0.292893C13.6054 0.48043 13.5 0.734784 13.5 1C13.5 1.26522 13.6054 1.51957 13.7929 1.70711C13.9804 1.89464 14.2348 2 14.5 2H17.5C17.7652 2 18.0196 2.10536 18.2071 2.29289C18.3946 2.48043 18.5 2.73478 18.5 3V6C18.5 6.26522 18.6054 6.51957 18.7929 6.70711C18.9804 6.89464 19.2348 7 19.5 7C19.7652 7 20.0196 6.89464 20.2071 6.70711C20.3946 6.51957 20.5 6.26522 20.5 6V3C20.5 2.20435 20.1839 1.44129 19.6213 0.87868C19.0587 0.316071 18.2956 0 17.5 0ZM19.5 13C19.2348 13 18.9804 13.1054 18.7929 13.2929C18.6054 13.4804 18.5 13.7348 18.5 14V17C18.5 17.2652 18.3946 17.5196 18.2071 17.7071C18.0196 17.8946 17.7652 18 17.5 18H14.5C14.2348 18 13.9804 18.1054 13.7929 18.2929C13.6054 18.4804 13.5 18.7348 13.5 19C13.5 19.2652 13.6054 19.5196 13.7929 19.7071C13.9804 19.8946 14.2348 20 14.5 20H17.5C18.2956 20 19.0587 19.6839 19.6213 19.1213C20.1839 18.5587 20.5 17.7956 20.5 17V14C20.5 13.7348 20.3946 13.4804 20.2071 13.2929C20.0196 13.1054 19.7652 13 19.5 13Z" fill="currentColor"/>
</svg>
