<svg width="17" height="20" viewBox="0 0 17 20" fill="none" xmlns="http://www.w3.org/2000/svg">
<path d="M16.13 1.65C16.0138 1.55602 15.8781 1.48928 15.7327 1.45467C15.5873 1.42006 15.4361 1.41846 15.29 1.45C14.2214 1.67395 13.1183 1.6768 12.0486 1.45839C10.9789 1.23997 9.96525 0.804917 9.07001 0.180003C8.90261 0.063876 8.70374 0.00164795 8.50001 0.00164795C8.29627 0.00164795 8.0974 0.063876 7.93001 0.180003C7.03476 0.804917 6.02108 1.23997 4.95137 1.45839C3.88166 1.6768 2.77857 1.67395 1.71001 1.45C1.56394 1.41846 1.41267 1.42006 1.26731 1.45467C1.12194 1.48928 0.986181 1.55602 0.870006 1.65C0.753985 1.74412 0.660527 1.86304 0.596498 1.99802C0.532469 2.133 0.499498 2.28061 0.500006 2.43V9.88C0.499117 11.3138 0.840779 12.727 1.49654 14.002C2.1523 15.277 3.10319 16.3768 4.27001 17.21L7.92001 19.81C8.08937 19.9306 8.2921 19.9954 8.50001 19.9954C8.70791 19.9954 8.91064 19.9306 9.08001 19.81L12.73 17.21C13.8968 16.3768 14.8477 15.277 15.5035 14.002C16.1592 12.727 16.5009 11.3138 16.5 9.88V2.43C16.5005 2.28061 16.4675 2.133 16.4035 1.99802C16.3395 1.86304 16.246 1.74412 16.13 1.65ZM14.5 9.88C14.5008 10.9948 14.2353 12.0936 13.7257 13.085C13.216 14.0765 12.477 14.9319 11.57 15.58L8.50001 17.77L5.43001 15.58C4.52304 14.9319 3.78399 14.0765 3.27435 13.085C2.76472 12.0936 2.49924 10.9948 2.50001 9.88V3.58C4.59643 3.75944 6.69605 3.27303 8.50001 2.19C10.304 3.27303 12.4036 3.75944 14.5 3.58V9.88Z" fill="currentColor"/>
</svg>
