<svg width="80" height="27" viewBox="0 0 80 27" fill="none"
  xmlns="http://www.w3.org/2000/svg">
  <path d="M5.17565 12.5029C4.34898 12.5029 3.65565 12.3029 3.09565 11.9029C2.53565 11.4976 2.11165 10.9509 1.82365 10.2629C1.53565 9.57493 1.39165 8.79893 1.39165 7.93493C1.39165 7.07093 1.53298 6.29493 1.81565 5.60693C2.10365 4.91893 2.52498 4.3776 3.07965 3.98293C3.63965 3.58293 4.32765 3.38293 5.14365 3.38293C5.95432 3.38293 6.65298 3.58293 7.23965 3.98293C7.83165 4.3776 8.28765 4.91893 8.60765 5.60693C8.92765 6.2896 9.08765 7.0656 9.08765 7.93493C9.08765 8.79893 8.92765 9.5776 8.60765 10.2709C8.29298 10.9589 7.84232 11.5029 7.25565 11.9029C6.67432 12.3029 5.98098 12.5029 5.17565 12.5029ZM1.11165 12.2629V0.742929H2.79165V6.04693H2.59965V12.2629H1.11165ZM4.94365 10.9909C5.47698 10.9909 5.91698 10.8549 6.26365 10.5829C6.61565 10.3109 6.87698 9.9456 7.04765 9.48693C7.22365 9.02293 7.31165 8.5056 7.31165 7.93493C7.31165 7.3696 7.22365 6.8576 7.04765 6.39893C6.87698 5.94026 6.61298 5.57493 6.25565 5.30293C5.89832 5.03093 5.44232 4.89493 4.88765 4.89493C4.36498 4.89493 3.93298 5.02293 3.59165 5.27893C3.25565 5.53493 3.00498 5.89226 2.83965 6.35093C2.67965 6.8096 2.59965 7.3376 2.59965 7.93493C2.59965 8.53226 2.67965 9.06026 2.83965 9.51893C2.99965 9.9776 3.25298 10.3376 3.59965 10.5989C3.94632 10.8603 4.39432 10.9909 4.94365 10.9909Z" fill="#FAFCFC"/>
  <path d="M10.694 12.2629V0.50293H12.366V12.2629H10.694Z" fill="#FAFCFC"/>
  <path d="M18.2004 12.5029C17.3364 12.5029 16.5871 12.3083 15.9524 11.9189C15.3177 11.5296 14.8271 10.9936 14.4804 10.3109C14.1391 9.62293 13.9684 8.83093 13.9684 7.93493C13.9684 7.0336 14.1444 6.2416 14.4964 5.55893C14.8484 4.87093 15.3417 4.3376 15.9764 3.95893C16.6111 3.57493 17.3524 3.38293 18.2004 3.38293C19.0644 3.38293 19.8137 3.5776 20.4484 3.96693C21.0831 4.35626 21.5737 4.89226 21.9204 5.57493C22.2671 6.2576 22.4404 7.04426 22.4404 7.93493C22.4404 8.83626 22.2644 9.63093 21.9124 10.3189C21.5657 11.0016 21.0751 11.5376 20.4404 11.9269C19.8057 12.3109 19.0591 12.5029 18.2004 12.5029ZM18.2004 10.9269C19.0271 10.9269 19.6431 10.6496 20.0484 10.0949C20.4591 9.53493 20.6644 8.81493 20.6644 7.93493C20.6644 7.0336 20.4564 6.3136 20.0404 5.77493C19.6297 5.23093 19.0164 4.95893 18.2004 4.95893C17.6404 4.95893 17.1791 5.08693 16.8164 5.34293C16.4537 5.5936 16.1844 5.94293 16.0084 6.39093C15.8324 6.8336 15.7444 7.34826 15.7444 7.93493C15.7444 8.8416 15.9524 9.56693 16.3684 10.1109C16.7844 10.6549 17.3951 10.9269 18.2004 10.9269Z" fill="#FAFCFC"/>
  <path d="M27.5744 12.5029C26.6891 12.5029 25.9371 12.3056 25.3184 11.9109C24.6997 11.5163 24.2251 10.9749 23.8944 10.2869C23.5691 9.59893 23.4037 8.8176 23.3984 7.94293C23.4037 7.05226 23.5744 6.2656 23.9104 5.58293C24.2464 4.89493 24.7264 4.35626 25.3504 3.96693C25.9744 3.5776 26.7237 3.38293 27.5984 3.38293C28.5424 3.38293 29.3477 3.6176 30.0144 4.08693C30.6864 4.55626 31.1291 5.19893 31.3424 6.01493L29.6784 6.49493C29.5131 6.0096 29.2411 5.6336 28.8624 5.36693C28.4891 5.09493 28.0597 4.95893 27.5744 4.95893C27.0251 4.95893 26.5744 5.0896 26.2224 5.35093C25.8704 5.60693 25.6091 5.95893 25.4384 6.40693C25.2677 6.85493 25.1797 7.36693 25.1744 7.94293C25.1797 8.8336 25.3824 9.5536 25.7824 10.1029C26.1877 10.6523 26.7851 10.9269 27.5744 10.9269C28.1131 10.9269 28.5477 10.8043 28.8784 10.5589C29.2144 10.3083 29.4704 9.95093 29.6464 9.48693L31.3424 9.88693C31.0597 10.7296 30.5931 11.3776 29.9424 11.8309C29.2917 12.2789 28.5024 12.5029 27.5744 12.5029Z" fill="#FAFCFC"/>
  <path d="M32.6441 12.2629L32.6521 0.742929H34.3481V7.78293L37.7402 3.62293H39.8681L36.2841 7.94293L40.2361 12.2629H37.9641L34.3481 8.10293V12.2629H32.6441Z" fill="#FAFCFC"/>
  <path d="M44.2625 12.5029C43.3772 12.5029 42.6252 12.3056 42.0065 11.9109C41.3879 11.5163 40.9132 10.9749 40.5825 10.2869C40.2572 9.59893 40.0919 8.8176 40.0865 7.94293C40.0919 7.05226 40.2625 6.2656 40.5985 5.58293C40.9345 4.89493 41.4145 4.35626 42.0385 3.96693C42.6625 3.5776 43.4119 3.38293 44.2865 3.38293C45.2305 3.38293 46.0359 3.6176 46.7025 4.08693C47.3745 4.55626 47.8172 5.19893 48.0305 6.01493L46.3665 6.49493C46.2012 6.0096 45.9292 5.6336 45.5505 5.36693C45.1772 5.09493 44.7479 4.95893 44.2625 4.95893C43.7132 4.95893 43.2625 5.0896 42.9105 5.35093C42.5585 5.60693 42.2972 5.95893 42.1265 6.40693C41.9559 6.85493 41.8679 7.36693 41.8625 7.94293C41.8679 8.8336 42.0705 9.5536 42.4705 10.1029C42.8759 10.6523 43.4732 10.9269 44.2625 10.9269C44.8012 10.9269 45.2359 10.8043 45.5665 10.5589C45.9025 10.3083 46.1585 9.95093 46.3345 9.48693L48.0305 9.88693C47.7479 10.7296 47.2812 11.3776 46.6305 11.8309C45.9799 12.2789 45.1905 12.5029 44.2625 12.5029Z" fill="#FAFCFC"/>
  <path d="M55.4043 12.2629V8.01493C55.4043 7.67893 55.3749 7.33493 55.3163 6.98293C55.2629 6.6256 55.1563 6.29493 54.9963 5.99093C54.8416 5.68693 54.6203 5.4416 54.3323 5.25493C54.0496 5.06826 53.6789 4.97493 53.2203 4.97493C52.9216 4.97493 52.6389 5.0256 52.3723 5.12693C52.1056 5.22293 51.8709 5.38026 51.6683 5.59893C51.4709 5.8176 51.3136 6.1056 51.1963 6.46293C51.0843 6.82026 51.0283 7.25493 51.0283 7.76693L49.9883 7.37493C49.9883 6.59093 50.1349 5.90026 50.4283 5.30293C50.7216 4.70026 51.1429 4.23093 51.6923 3.89493C52.2416 3.55893 52.9056 3.39093 53.6843 3.39093C54.2816 3.39093 54.7829 3.48693 55.1883 3.67893C55.5936 3.87093 55.9216 4.12426 56.1723 4.43893C56.4283 4.74826 56.6229 5.08693 56.7563 5.45493C56.8896 5.82293 56.9803 6.18293 57.0283 6.53493C57.0763 6.88693 57.1003 7.19626 57.1003 7.46293V12.2629H55.4043ZM49.3323 12.2629V0.742929H50.8283V6.95893H51.0283V12.2629H49.3323Z" fill="#FAFCFC"/>
  <path d="M61.304 12.5029C60.664 12.5029 60.128 12.3856 59.696 12.1509C59.264 11.9109 58.936 11.5963 58.712 11.2069C58.4934 10.8123 58.384 10.3803 58.384 9.91093C58.384 9.4736 58.4614 9.0896 58.616 8.75893C58.7707 8.42826 59 8.14826 59.304 7.91893C59.608 7.68426 59.9814 7.49493 60.424 7.35093C60.808 7.23893 61.2427 7.14026 61.728 7.05493C62.2134 6.9696 62.7227 6.8896 63.256 6.81493C63.7947 6.74026 64.328 6.6656 64.856 6.59093L64.248 6.92693C64.2587 6.2496 64.1147 5.74826 63.816 5.42293C63.5227 5.09226 63.016 4.92693 62.296 4.92693C61.8427 4.92693 61.4267 5.0336 61.048 5.24693C60.6694 5.45493 60.4054 5.8016 60.256 6.28693L58.696 5.80693C58.9094 5.0656 59.3147 4.47626 59.912 4.03893C60.5147 3.6016 61.3147 3.38293 62.312 3.38293C63.0854 3.38293 63.7574 3.51626 64.328 3.78293C64.904 4.04426 65.3254 4.46026 65.592 5.03093C65.7307 5.3136 65.816 5.61226 65.848 5.92693C65.88 6.2416 65.896 6.58026 65.896 6.94293V12.2629H64.416V10.2869L64.704 10.5429C64.3467 11.2043 63.8907 11.6976 63.336 12.0229C62.7867 12.3429 62.1094 12.5029 61.304 12.5029ZM61.6 11.1349C62.0747 11.1349 62.4827 11.0523 62.824 10.8869C63.1654 10.7163 63.44 10.5003 63.648 10.2389C63.856 9.9776 63.992 9.7056 64.056 9.42293C64.1467 9.16693 64.1974 8.87893 64.208 8.55893C64.224 8.23893 64.232 7.98293 64.232 7.79093L64.776 7.99093C64.248 8.07093 63.768 8.14293 63.336 8.20693C62.904 8.27093 62.512 8.33493 62.16 8.39893C61.8134 8.4576 61.504 8.5296 61.232 8.61493C61.0027 8.69493 60.7974 8.79093 60.616 8.90293C60.44 9.01493 60.2987 9.15093 60.192 9.31093C60.0907 9.47093 60.04 9.6656 60.04 9.89493C60.04 10.1189 60.096 10.3269 60.208 10.5189C60.32 10.7056 60.4907 10.8549 60.72 10.9669C60.9494 11.0789 61.2427 11.1349 61.6 11.1349Z" fill="#FAFCFC"/>
  <path d="M67.8134 2.20693V0.58293H69.4854V2.20693H67.8134ZM67.8134 12.2629V3.62293H69.4854V12.2629H67.8134Z" fill="#FAFCFC"/>
  <path d="M77.6318 12.2629V8.01493C77.6318 7.67893 77.6024 7.33493 77.5438 6.98293C77.4904 6.6256 77.3838 6.29493 77.2238 5.99093C77.0691 5.68693 76.8478 5.4416 76.5598 5.25493C76.2771 5.06826 75.9064 4.97493 75.4478 4.97493C75.1491 4.97493 74.8664 5.0256 74.5998 5.12693C74.3331 5.22293 74.0984 5.38026 73.8958 5.59893C73.6984 5.8176 73.5411 6.1056 73.4238 6.46293C73.3118 6.82026 73.2558 7.25493 73.2558 7.76693L72.2158 7.37493C72.2158 6.59093 72.3624 5.90026 72.6558 5.30293C72.9491 4.70026 73.3704 4.23093 73.9198 3.89493C74.4691 3.55893 75.1331 3.39093 75.9118 3.39093C76.5091 3.39093 77.0104 3.48693 77.4158 3.67893C77.8211 3.87093 78.1491 4.12426 78.3998 4.43893C78.6558 4.74826 78.8504 5.08693 78.9838 5.45493C79.1171 5.82293 79.2078 6.18293 79.2558 6.53493C79.3038 6.88693 79.3278 7.19626 79.3278 7.46293V12.2629H77.6318ZM71.5598 12.2629V3.62293H73.0558V6.11893H73.2558V12.2629H71.5598Z" fill="#FAFCFC"/>
  <path d="M4.95165 26.5029C4.09298 26.5029 3.33832 26.3163 2.68765 25.9429C2.04232 25.5643 1.53832 25.0389 1.17565 24.3669C0.818315 23.6896 0.639648 22.9056 0.639648 22.0149C0.639648 21.0709 0.815648 20.2523 1.16765 19.5589C1.52498 18.8656 2.02098 18.3296 2.65565 17.9509C3.29032 17.5723 4.02898 17.3829 4.87165 17.3829C5.75165 17.3829 6.50098 17.5883 7.11965 17.9989C7.73832 18.4043 8.19965 18.9829 8.50365 19.7349C8.81298 20.4869 8.93565 21.3803 8.87165 22.4149H7.19965V21.8069C7.18898 20.8043 6.99698 20.0629 6.62365 19.5829C6.25565 19.1029 5.69298 18.8629 4.93565 18.8629C4.09832 18.8629 3.46898 19.1269 3.04765 19.6549C2.62632 20.1829 2.41565 20.9456 2.41565 21.9429C2.41565 22.8923 2.62632 23.6283 3.04765 24.1509C3.46898 24.6683 4.07698 24.9269 4.87165 24.9269C5.39432 24.9269 5.84498 24.8096 6.22365 24.5749C6.60765 24.3349 6.90632 23.9936 7.11965 23.5509L8.75965 24.0709C8.42365 24.8443 7.91432 25.4443 7.23165 25.8709C6.54898 26.2923 5.78898 26.5029 4.95165 26.5029ZM1.87165 22.4149V21.1109H8.03965V22.4149H1.87165Z" fill="#FAFCFC"/>
  <path d="M13.7785 26.5029C12.9732 26.5029 12.2772 26.3029 11.6905 25.9029C11.1092 25.5029 10.6585 24.9589 10.3385 24.2709C10.0239 23.5776 9.86652 22.7989 9.86652 21.9349C9.86652 21.0656 10.0265 20.2896 10.3465 19.6069C10.6665 18.9189 11.1199 18.3776 11.7065 17.9829C12.2985 17.5829 12.9999 17.3829 13.8105 17.3829C14.6265 17.3829 15.3119 17.5829 15.8665 17.9829C16.4265 18.3776 16.8479 18.9189 17.1305 19.6069C17.4185 20.2949 17.5625 21.0709 17.5625 21.9349C17.5625 22.7989 17.4185 23.5749 17.1305 24.2629C16.8425 24.9509 16.4185 25.4976 15.8585 25.9029C15.2985 26.3029 14.6052 26.5029 13.7785 26.5029ZM14.0105 24.9909C14.5599 24.9909 15.0079 24.8603 15.3545 24.5989C15.7012 24.3376 15.9545 23.9776 16.1145 23.5189C16.2745 23.0603 16.3545 22.5323 16.3545 21.9349C16.3545 21.3376 16.2719 20.8096 16.1065 20.3509C15.9465 19.8923 15.6959 19.5349 15.3545 19.2789C15.0185 19.0229 14.5892 18.8949 14.0665 18.8949C13.5119 18.8949 13.0559 19.0309 12.6985 19.3029C12.3412 19.5749 12.0745 19.9403 11.8985 20.3989C11.7279 20.8576 11.6425 21.3696 11.6425 21.9349C11.6425 22.5056 11.7279 23.0229 11.8985 23.4869C12.0745 23.9456 12.3359 24.3109 12.6825 24.5829C13.0345 24.8549 13.4772 24.9909 14.0105 24.9909ZM16.3545 26.2629V20.0469H16.1625V14.7429H17.8425V26.2629H16.3545Z" fill="#FAFCFC"/>
  <path d="M23.0169 26.4949C22.4196 26.4949 21.9182 26.3989 21.5129 26.2069C21.1076 26.0149 20.7769 25.7643 20.5209 25.4549C20.2702 25.1403 20.0782 24.7989 19.9449 24.4309C19.8116 24.0629 19.7209 23.7029 19.6729 23.3509C19.6249 22.9989 19.6009 22.6896 19.6009 22.4229V17.6229H21.2969V21.8709C21.2969 22.2069 21.3236 22.5536 21.3769 22.9109C21.4356 23.2629 21.5422 23.5909 21.6969 23.8949C21.8569 24.1989 22.0782 24.4443 22.3609 24.6309C22.6489 24.8176 23.0222 24.9109 23.4809 24.9109C23.7796 24.9109 24.0622 24.8629 24.3289 24.7669C24.5956 24.6656 24.8276 24.5056 25.0249 24.2869C25.2276 24.0683 25.3849 23.7803 25.4969 23.4229C25.6142 23.0656 25.6729 22.6309 25.6729 22.1189L26.7129 22.5109C26.7129 23.2949 26.5662 23.9883 26.2729 24.5909C25.9796 25.1883 25.5582 25.6549 25.0089 25.9909C24.4596 26.3269 23.7956 26.4949 23.0169 26.4949ZM25.8729 26.2629V23.7669H25.6729V17.6229H27.3609V26.2629H25.8729Z" fill="#FAFCFC"/>
  <path d="M32.9807 26.5029C32.0953 26.5029 31.3433 26.3056 30.7246 25.9109C30.106 25.5163 29.6313 24.9749 29.3006 24.2869C28.9753 23.5989 28.81 22.8176 28.8046 21.9429C28.81 21.0523 28.9806 20.2656 29.3167 19.5829C29.6527 18.8949 30.1326 18.3563 30.7566 17.9669C31.3806 17.5776 32.13 17.3829 33.0047 17.3829C33.9487 17.3829 34.754 17.6176 35.4207 18.0869C36.0927 18.5563 36.5353 19.1989 36.7486 20.0149L35.0847 20.4949C34.9193 20.0096 34.6473 19.6336 34.2687 19.3669C33.8953 19.0949 33.466 18.9589 32.9807 18.9589C32.4313 18.9589 31.9806 19.0896 31.6287 19.3509C31.2767 19.6069 31.0153 19.9589 30.8447 20.4069C30.674 20.8549 30.586 21.3669 30.5807 21.9429C30.586 22.8336 30.7887 23.5536 31.1887 24.1029C31.594 24.6523 32.1913 24.9269 32.9807 24.9269C33.5193 24.9269 33.954 24.8043 34.2846 24.5589C34.6206 24.3083 34.8767 23.9509 35.0527 23.4869L36.7486 23.8869C36.466 24.7296 35.9993 25.3776 35.3487 25.8309C34.698 26.2789 33.9087 26.5029 32.9807 26.5029Z" fill="#FAFCFC"/>
  <path d="M40.389 26.5029C39.749 26.5029 39.213 26.3856 38.781 26.1509C38.349 25.9109 38.021 25.5963 37.797 25.2069C37.5784 24.8123 37.469 24.3803 37.469 23.9109C37.469 23.4736 37.5464 23.0896 37.701 22.7589C37.8557 22.4283 38.085 22.1483 38.389 21.9189C38.693 21.6843 39.0664 21.4949 39.509 21.3509C39.893 21.2389 40.3277 21.1403 40.813 21.0549C41.2984 20.9696 41.8077 20.8896 42.341 20.8149C42.8797 20.7403 43.413 20.6656 43.941 20.5909L43.333 20.9269C43.3437 20.2496 43.1997 19.7483 42.901 19.4229C42.6077 19.0923 42.101 18.9269 41.381 18.9269C40.9277 18.9269 40.5117 19.0336 40.133 19.2469C39.7544 19.4549 39.4904 19.8016 39.341 20.2869L37.781 19.8069C37.9944 19.0656 38.3997 18.4763 38.997 18.0389C39.5997 17.6016 40.3997 17.3829 41.397 17.3829C42.1704 17.3829 42.8424 17.5163 43.413 17.7829C43.989 18.0443 44.4104 18.4603 44.677 19.0309C44.8157 19.3136 44.901 19.6123 44.933 19.9269C44.965 20.2416 44.981 20.5803 44.981 20.9429V26.2629H43.501V24.2869L43.789 24.5429C43.4317 25.2043 42.9757 25.6976 42.421 26.0229C41.8717 26.3429 41.1944 26.5029 40.389 26.5029ZM40.685 25.1349C41.1597 25.1349 41.5677 25.0523 41.909 24.8869C42.2504 24.7163 42.525 24.5003 42.733 24.2389C42.941 23.9776 43.077 23.7056 43.141 23.4229C43.2317 23.1669 43.2824 22.8789 43.293 22.5589C43.309 22.2389 43.317 21.9829 43.317 21.7909L43.861 21.9909C43.333 22.0709 42.853 22.1429 42.421 22.2069C41.989 22.2709 41.597 22.3349 41.245 22.3989C40.8984 22.4576 40.589 22.5296 40.317 22.6149C40.0877 22.6949 39.8824 22.7909 39.701 22.9029C39.525 23.0149 39.3837 23.1509 39.277 23.3109C39.1757 23.4709 39.125 23.6656 39.125 23.8949C39.125 24.1189 39.181 24.3269 39.293 24.5189C39.405 24.7056 39.5757 24.8549 39.805 24.9669C40.0344 25.0789 40.3277 25.1349 40.685 25.1349Z" fill="#FAFCFC"/>
  <path d="M51.6824 26.2629C51.1384 26.3696 50.6051 26.4149 50.0824 26.3989C49.5597 26.3829 49.0931 26.2816 48.6824 26.0949C48.2717 25.9083 47.9624 25.6149 47.7544 25.2149C47.5677 24.8576 47.4664 24.4949 47.4504 24.1269C47.4397 23.7536 47.4344 23.3323 47.4344 22.8629V15.2229H49.1144V22.7829C49.1144 23.1296 49.1171 23.4309 49.1224 23.6869C49.1331 23.9429 49.1891 24.1589 49.2904 24.3349C49.4824 24.6656 49.7864 24.8549 50.2024 24.9029C50.6237 24.9456 51.1171 24.9269 51.6824 24.8469V26.2629ZM45.7784 18.9669V17.6229H51.6824V18.9669H45.7784Z" fill="#FAFCFC"/>
  <path d="M53.344 16.2069V14.5829H55.016V16.2069H53.344ZM53.344 26.2629V17.6229H55.016V26.2629H53.344Z" fill="#FAFCFC"/>
  <path d="M60.8504 26.5029C59.9864 26.5029 59.2371 26.3083 58.6024 25.9189C57.9677 25.5296 57.4771 24.9936 57.1304 24.3109C56.7891 23.6229 56.6184 22.8309 56.6184 21.9349C56.6184 21.0336 56.7944 20.2416 57.1464 19.5589C57.4984 18.8709 57.9917 18.3376 58.6264 17.9589C59.2611 17.5749 60.0024 17.3829 60.8504 17.3829C61.7144 17.3829 62.4637 17.5776 63.0984 17.9669C63.7331 18.3563 64.2237 18.8923 64.5704 19.5749C64.9171 20.2576 65.0904 21.0443 65.0904 21.9349C65.0904 22.8363 64.9144 23.6309 64.5624 24.3189C64.2157 25.0016 63.7251 25.5376 63.0904 25.9269C62.4557 26.3109 61.7091 26.5029 60.8504 26.5029ZM60.8504 24.9269C61.6771 24.9269 62.2931 24.6496 62.6984 24.0949C63.1091 23.5349 63.3144 22.8149 63.3144 21.9349C63.3144 21.0336 63.1064 20.3136 62.6904 19.7749C62.2797 19.2309 61.6664 18.9589 60.8504 18.9589C60.2904 18.9589 59.8291 19.0869 59.4664 19.3429C59.1037 19.5936 58.8344 19.9429 58.6584 20.3909C58.4824 20.8336 58.3944 21.3483 58.3944 21.9349C58.3944 22.8416 58.6024 23.5669 59.0184 24.1109C59.4344 24.6549 60.0451 24.9269 60.8504 24.9269Z" fill="#FAFCFC"/>
  <path d="M72.5924 26.2629V22.0149C72.5924 21.6789 72.5631 21.3349 72.5044 20.9829C72.4511 20.6256 72.3444 20.2949 72.1844 19.9909C72.0297 19.6869 71.8084 19.4416 71.5204 19.2549C71.2377 19.0683 70.8671 18.9749 70.4084 18.9749C70.1097 18.9749 69.8271 19.0256 69.5604 19.1269C69.2937 19.2229 69.0591 19.3803 68.8564 19.5989C68.6591 19.8176 68.5017 20.1056 68.3844 20.4629C68.2724 20.8203 68.2164 21.2549 68.2164 21.7669L67.1764 21.3749C67.1764 20.5909 67.3231 19.9003 67.6164 19.3029C67.9097 18.7003 68.3311 18.2309 68.8804 17.8949C69.4297 17.5589 70.0937 17.3909 70.8724 17.3909C71.4697 17.3909 71.9711 17.4869 72.3764 17.6789C72.7817 17.8709 73.1097 18.1243 73.3604 18.4389C73.6164 18.7483 73.8111 19.0869 73.9444 19.4549C74.0777 19.8229 74.1684 20.1829 74.2164 20.5349C74.2644 20.8869 74.2884 21.1963 74.2884 21.4629V26.2629H72.5924ZM66.5204 26.2629V17.6229H68.0164V20.1189H68.2164V26.2629H66.5204Z" fill="#FAFCFC"/>
</svg>
