<svg width="32" height="32" fill="none" xmlns="http://www.w3.org/2000/svg"><rect width="32" height="32" rx="10" fill="#fff"></rect><g clip-path="url(#logo_svg__a)" fill="#141D1F"><path d="M8.932 7.37H8.93a.726.726 0 0 0-.725.729v10.926c0 .4.327.727.73.728 1.696.004 4.538.358 6.498 2.41V10.726a.698.698 0 0 0-.1-.369c-1.61-2.591-4.701-2.985-6.401-2.989ZM23.792 19.025V8.098a.726.726 0 0 0-.725-.729h-.002c-1.7.004-4.791.398-6.4 2.99a.698.698 0 0 0-.1.368v11.435c1.96-2.051 4.802-2.405 6.498-2.409a.731.731 0 0 0 .73-.728Z"></path><path d="M25.452 9.889h-.529v9.135a1.864 1.864 0 0 1-1.858 1.86c-1.439.003-3.81.285-5.49 1.875 2.905-.712 5.968-.249 7.714.149a.727.727 0 0 0 .891-.71v-11.58a.73.73 0 0 0-.728-.73ZM7.074 19.024V9.89h-.528a.73.73 0 0 0-.729.728v11.58a.727.727 0 0 0 .892.71c1.746-.397 4.809-.86 7.714-.148-1.68-1.59-4.052-1.872-5.49-1.875a1.864 1.864 0 0 1-1.859-1.86Z"></path></g><defs><clipPath id="logo_svg__a"><path fill="#fff" transform="translate(5.818 5.818)" d="M0 0h20.364v20.364H0z"></path></clipPath></defs></svg>